<svg width="14" height="14" viewBox="0 0 14 14" fill="none" xmlns="http://www.w3.org/2000/svg">
<path d="M7.32817 8.84V10.2267C6.9015 10.0756 6.45705 10 5.99483 10C5.27483 10 4.60372 10.1822 3.9815 10.5467C3.37705 10.9022 2.89705 11.3822 2.5415 11.9867C2.17705 12.6089 1.99483 13.28 1.99483 14H0.661499C0.661499 13.0311 0.905943 12.1333 1.39483 11.3067C1.86594 10.5067 2.5015 9.87111 3.3015 9.4C4.12817 8.91111 5.02594 8.66667 5.99483 8.66667C6.44817 8.66667 6.89261 8.72444 7.32817 8.84ZM5.99483 8C5.26594 8 4.59483 7.81778 3.9815 7.45333C3.37705 7.09778 2.89705 6.61778 2.5415 6.01333C2.17705 5.4 1.99483 4.72889 1.99483 4C1.99483 3.27111 2.17705 2.6 2.5415 1.98667C2.89705 1.38222 3.37705 0.902222 3.9815 0.546666C4.59483 0.182221 5.26594 0 5.99483 0C6.72372 0 7.39483 0.182221 8.00817 0.546666C8.61261 0.902222 9.09261 1.38222 9.44817 1.98667C9.81261 2.6 9.99483 3.27111 9.99483 4C9.99483 4.72889 9.81261 5.4 9.44817 6.01333C9.09261 6.61778 8.61261 7.09778 8.00817 7.45333C7.39483 7.81778 6.72372 8 5.99483 8ZM5.99483 6.66667C6.47483 6.66667 6.91928 6.54667 7.32817 6.30667C7.73705 6.06667 8.0615 5.74222 8.3015 5.33333C8.5415 4.92444 8.6615 4.48 8.6615 4C8.6615 3.52 8.5415 3.07555 8.3015 2.66667C8.0615 2.25778 7.73705 1.93333 7.32817 1.69333C6.91928 1.45333 6.47483 1.33333 5.99483 1.33333C5.51483 1.33333 5.07039 1.45333 4.6615 1.69333C4.25261 1.93333 3.92817 2.25778 3.68817 2.66667C3.44817 3.07555 3.32817 3.52 3.32817 4C3.32817 4.48 3.44817 4.92444 3.68817 5.33333C3.92817 5.74222 4.25261 6.06667 4.6615 6.30667C5.07039 6.54667 5.51483 6.66667 5.99483 6.66667ZM9.99483 10.6667V8.66667H11.3282V10.6667H13.3282V12H11.3282V14H9.99483V12H7.99483V10.6667H9.99483Z" fill="#98CF98"/>
</svg>
