<svg width="12" height="12" viewBox="0 0 12 12" fill="none" xmlns="http://www.w3.org/2000/svg">
<path d="M3.08175 3.07652V0.741589C3.08175 0.578143 3.13818 0.439993 3.25103 0.327138C3.36389 0.214283 3.50204 0.157856 3.66549 0.157856H11.254C11.4175 0.157856 11.5556 0.214283 11.6685 0.327138C11.7813 0.439993 11.8377 0.578143 11.8377 0.741589V8.33012C11.8377 8.49357 11.7813 8.63172 11.6685 8.74457C11.5556 8.85743 11.4175 8.91385 11.254 8.91385H8.91908V11.2488C8.91908 11.4122 8.86266 11.5504 8.7498 11.6632C8.63695 11.7761 8.4988 11.8325 8.33535 11.8325H0.746819C0.583374 11.8325 0.445224 11.7761 0.332369 11.6632C0.219513 11.5504 0.163086 11.4122 0.163086 11.2488V3.66025C0.163086 3.49681 0.221459 3.35866 0.338206 3.2458C0.454953 3.13295 0.595049 3.07652 0.758494 3.07652H3.08175ZM4.24922 3.07652H8.33535C8.4988 3.07652 8.63695 3.13295 8.7498 3.2458C8.86266 3.35866 8.91908 3.49681 8.91908 3.66025V7.74639H10.6703V1.32532H4.24922V3.07652ZM7.75162 4.24399H1.33055V10.6651H7.75162V4.24399ZM3.95735 9.49759L1.89094 7.43117L2.71984 6.61394L3.95735 7.85146L6.43238 5.36476L7.26128 6.19366L3.95735 9.49759Z" fill="#2E5A2E"/>
</svg>
