<svg width="14" height="14" viewBox="0 0 14 14" fill="none" xmlns="http://www.w3.org/2000/svg">
<path d="M10.3281 3H13.6615V4.33334H12.3281V13C12.3281 13.1867 12.2637 13.3444 12.1348 13.4733C12.0059 13.6022 11.8481 13.6667 11.6615 13.6667H2.32812C2.14146 13.6667 1.98368 13.6022 1.85479 13.4733C1.7259 13.3444 1.66146 13.1867 1.66146 13V4.33334H0.328125V3H3.66146V1C3.66146 0.813338 3.7259 0.65556 3.85479 0.526671C3.98368 0.397782 4.14146 0.333338 4.32812 0.333338H9.66146C9.84813 0.333338 10.0059 0.397782 10.1348 0.526671C10.2637 0.65556 10.3281 0.813338 10.3281 1V3ZM10.9948 4.33334H2.99479V12.3333H10.9948V4.33334ZM4.99479 6.33334H6.32812V10.3333H4.99479V6.33334ZM7.66146 6.33334H8.99479V10.3333H7.66146V6.33334ZM4.99479 1.66667V3H8.99479V1.66667H4.99479Z" fill="#6B7280"/>
</svg>
