<svg width="14" height="14" viewBox="0 0 14 14" fill="none" xmlns="http://www.w3.org/2000/svg">
<path d="M11.5951 0.333323C11.7817 0.333323 11.9395 0.397767 12.0684 0.526656C12.1973 0.655545 12.2617 0.813323 12.2617 0.99999V3.50666L10.9284 4.83999V1.66666H1.59505V12.3333H10.9284V10.4933L12.2617 9.15999V13C12.2617 13.1867 12.1973 13.3444 12.0684 13.4733C11.9395 13.6022 11.7817 13.6667 11.5951 13.6667H0.928385C0.741719 13.6667 0.583941 13.6022 0.455052 13.4733C0.326163 13.3444 0.261719 13.1867 0.261719 13V0.99999C0.261719 0.813323 0.326163 0.655545 0.455052 0.526656C0.583941 0.397767 0.741719 0.333323 0.928385 0.333323H11.5951ZM12.7817 4.86666L13.7284 5.81332L8.54172 11H7.59505V10.0533L12.7817 4.86666ZM6.92839 6.99999V8.33332H3.59505V6.99999H6.92839ZM8.92839 4.33332V5.66666H3.59505V4.33332H8.92839Z" fill="#CA8A04"/>
</svg>
