<svg width="22" height="20" viewBox="0 0 22 20" fill="none" xmlns="http://www.w3.org/2000/svg">
<path d="M19 12V15H22V17H19V20H17V17H14V15H17V12H19ZM19 0C19.28 0 19.5167 0.0966663 19.71 0.290001C19.9033 0.483334 20 0.720001 20 1V10H18V2H2V16L12 6L15 9V11.82L12 8.82L4.82 16H12V18H1C0.72 18 0.483333 17.9033 0.29 17.71C0.0966667 17.5167 0 17.28 0 17V1C0 0.720001 0.0966667 0.483334 0.29 0.290001C0.483333 0.0966663 0.72 0 1 0H19ZM6 4C6.36 4 6.69333 4.09 7 4.27C7.30667 4.45 7.55 4.69333 7.73 5C7.91 5.30667 8 5.64 8 6C8 6.36 7.91 6.69333 7.73 7C7.55 7.30667 7.30667 7.55 7 7.73C6.69333 7.91 6.36 8 6 8C5.64 8 5.30667 7.91 5 7.73C4.69333 7.55 4.45 7.30667 4.27 7C4.09 6.69333 4 6.36 4 6C4 5.64 4.09 5.30667 4.27 5C4.45 4.69333 4.69333 4.45 5 4.27C5.30667 4.09 5.64 4 6 4Z" fill="#9CA3AF"/>
</svg>
