<svg width="12" height="14" viewBox="0 0 12 14" fill="none" xmlns="http://www.w3.org/2000/svg">
<path d="M11.3285 13.6667H0.661784C0.475117 13.6667 0.317339 13.6022 0.188451 13.4733C0.0595616 13.3444 -0.00488281 13.1867 -0.00488281 13V1C-0.00488281 0.813338 0.0595616 0.65556 0.188451 0.526671C0.317339 0.397782 0.475117 0.333338 0.661784 0.333338H11.3285C11.5151 0.333338 11.6729 0.397782 11.8018 0.526671C11.9307 0.65556 11.9951 0.813338 11.9951 1V13C11.9951 13.1867 11.9307 13.3444 11.8018 13.4733C11.6729 13.6022 11.5151 13.6667 11.3285 13.6667ZM10.6618 12.3333V1.66667H1.32845V12.3333H10.6618ZM2.66178 3H5.32845V5.66667H2.66178V3ZM2.66178 7H9.32845V8.33334H2.66178V7ZM2.66178 9.66667H9.32845V11H2.66178V9.66667ZM6.66178 3.66667H9.32845V5H6.66178V3.66667Z" fill="#2E5A2E"/>
</svg>
