<svg width="15" height="12" viewBox="0 0 15 12" fill="none" xmlns="http://www.w3.org/2000/svg">
<path d="M7.52486 0C8.69819 0 9.8093 0.266666 10.8582 0.8C11.8626 1.31556 12.7093 2.02889 13.3982 2.94C14.0871 3.85111 14.5337 4.87111 14.7382 6C14.5337 7.12889 14.0871 8.14889 13.3982 9.06C12.7093 9.97111 11.8626 10.6844 10.8582 11.2C9.8093 11.7333 8.69819 12 7.52486 12C6.35152 12 5.24041 11.7333 4.19152 11.2C3.18708 10.6844 2.34041 9.97111 1.65152 9.06C0.962635 8.14889 0.515968 7.12889 0.311523 6C0.515968 4.87111 0.962635 3.85111 1.65152 2.94C2.34041 2.02889 3.18708 1.31556 4.19152 0.8C5.24041 0.266666 6.35152 0 7.52486 0ZM7.52486 10.6667C8.4493 10.6667 9.3293 10.4622 10.1649 10.0533C10.9737 9.66222 11.6604 9.11111 12.2249 8.4C12.7893 7.68889 13.1737 6.88889 13.3782 6C13.1737 5.11111 12.7893 4.31111 12.2249 3.6C11.6604 2.88889 10.9737 2.33778 10.1649 1.94667C9.3293 1.53778 8.4493 1.33333 7.52486 1.33333C6.60041 1.33333 5.72041 1.53778 4.88486 1.94667C4.07597 2.33778 3.3893 2.88889 2.82486 3.6C2.26041 4.31111 1.87597 5.11111 1.67152 6C1.87597 6.88889 2.26041 7.68889 2.82486 8.4C3.3893 9.11111 4.07597 9.66222 4.88486 10.0533C5.72041 10.4622 6.60041 10.6667 7.52486 10.6667ZM7.52486 9C6.98263 9 6.48263 8.86444 6.02486 8.59333C5.56708 8.32222 5.20263 7.95778 4.93152 7.5C4.66041 7.04222 4.52486 6.54222 4.52486 6C4.52486 5.45778 4.66041 4.95778 4.93152 4.5C5.20263 4.04222 5.56708 3.67778 6.02486 3.40667C6.48263 3.13556 6.98263 3 7.52486 3C8.06708 3 8.56708 3.13556 9.02486 3.40667C9.48263 3.67778 9.84708 4.04222 10.1182 4.5C10.3893 4.95778 10.5249 5.45778 10.5249 6C10.5249 6.54222 10.3893 7.04222 10.1182 7.5C9.84708 7.95778 9.48263 8.32222 9.02486 8.59333C8.56708 8.86444 8.06708 9 7.52486 9ZM7.52486 7.66667C7.82708 7.66667 8.10486 7.59111 8.35819 7.44C8.61152 7.28889 8.81375 7.08667 8.96486 6.83333C9.11597 6.58 9.19152 6.30222 9.19152 6C9.19152 5.69778 9.11597 5.42 8.96486 5.16667C8.81375 4.91333 8.61152 4.71111 8.35819 4.56C8.10486 4.40889 7.82708 4.33333 7.52486 4.33333C7.22263 4.33333 6.94486 4.40889 6.69152 4.56C6.43819 4.71111 6.23597 4.91333 6.08486 5.16667C5.93375 5.42 5.85819 5.69778 5.85819 6C5.85819 6.30222 5.93375 6.58 6.08486 6.83333C6.23597 7.08667 6.43819 7.28889 6.69152 7.44C6.94486 7.59111 7.22263 7.66667 7.52486 7.66667Z" fill="#2E7D32"/>
</svg>
