<svg width="12" height="12" viewBox="0 0 12 12" fill="none" xmlns="http://www.w3.org/2000/svg">
<path d="M2.67155 10.6667V6.66667H9.33822V10.6667H10.6715V3.21333L8.79155 1.33333H1.33822V10.6667H2.67155ZM0.671549 0H9.33822L12.0049 2.66667V11.3333C12.0049 11.52 11.9404 11.6778 11.8116 11.8067C11.6827 11.9356 11.5249 12 11.3382 12H0.671549C0.484883 12 0.327105 11.9356 0.198216 11.8067C0.0693273 11.6778 0.00488281 11.52 0.00488281 11.3333V0.666666C0.00488281 0.48 0.0693273 0.322222 0.198216 0.193333C0.327105 0.0644445 0.484883 0 0.671549 0ZM4.00488 8V10.6667H8.00488V8H4.00488Z" fill="#4B5563"/>
</svg>
