<svg width="16" height="12" viewBox="0 0 16 12" fill="none" xmlns="http://www.w3.org/2000/svg">
<path d="M7.99556 0C9.16889 0 10.28 0.266666 11.3289 0.8C12.3333 1.31556 13.18 2.02889 13.8689 2.94C14.5578 3.85111 15.0044 4.87111 15.2089 6C15.0044 7.12889 14.5578 8.14889 13.8689 9.06C13.18 9.97111 12.3333 10.6844 11.3289 11.2C10.28 11.7333 9.16889 12 7.99556 12C6.82223 12 5.71112 11.7333 4.66223 11.2C3.65778 10.6844 2.81112 9.97111 2.12223 9.06C1.43334 8.14889 0.986671 7.12889 0.782227 6C0.986671 4.87111 1.43334 3.85111 2.12223 2.94C2.81112 2.02889 3.65778 1.31556 4.66223 0.8C5.71112 0.266666 6.82223 0 7.99556 0ZM7.99556 10.6667C8.92 10.6667 9.8 10.4622 10.6356 10.0533C11.4444 9.66222 12.1311 9.11111 12.6956 8.4C13.26 7.68889 13.6444 6.88889 13.8489 6C13.6444 5.11111 13.26 4.31111 12.6956 3.6C12.1311 2.88889 11.4444 2.33778 10.6356 1.94667C9.8 1.53778 8.92 1.33333 7.99556 1.33333C7.07112 1.33333 6.19112 1.53778 5.35556 1.94667C4.54667 2.33778 3.86 2.88889 3.29556 3.6C2.73112 4.31111 2.34667 5.11111 2.14223 6C2.34667 6.88889 2.73112 7.68889 3.29556 8.4C3.86 9.11111 4.54667 9.66222 5.35556 10.0533C6.19112 10.4622 7.07112 10.6667 7.99556 10.6667ZM7.99556 9C7.45334 9 6.95334 8.86444 6.49556 8.59333C6.03778 8.32222 5.67334 7.95778 5.40223 7.5C5.13112 7.04222 4.99556 6.54222 4.99556 6C4.99556 5.45778 5.13112 4.95778 5.40223 4.5C5.67334 4.04222 6.03778 3.67778 6.49556 3.40667C6.95334 3.13556 7.45334 3 7.99556 3C8.53778 3 9.03778 3.13556 9.49556 3.40667C9.95334 3.67778 10.3178 4.04222 10.5889 4.5C10.86 4.95778 10.9956 5.45778 10.9956 6C10.9956 6.54222 10.86 7.04222 10.5889 7.5C10.3178 7.95778 9.95334 8.32222 9.49556 8.59333C9.03778 8.86444 8.53778 9 7.99556 9ZM7.99556 7.66667C8.29778 7.66667 8.57556 7.59111 8.82889 7.44C9.08223 7.28889 9.28445 7.08667 9.43556 6.83333C9.58667 6.58 9.66223 6.30222 9.66223 6C9.66223 5.69778 9.58667 5.42 9.43556 5.16667C9.28445 4.91333 9.08223 4.71111 8.82889 4.56C8.57556 4.40889 8.29778 4.33333 7.99556 4.33333C7.69334 4.33333 7.41556 4.40889 7.16223 4.56C6.90889 4.71111 6.70667 4.91333 6.55556 5.16667C6.40445 5.42 6.32889 5.69778 6.32889 6C6.32889 6.30222 6.40445 6.58 6.55556 6.83333C6.70667 7.08667 6.90889 7.28889 7.16223 7.44C7.41556 7.59111 7.69334 7.66667 7.99556 7.66667Z" fill="#2563EB"/>
</svg>
