<svg width="14" height="14" viewBox="0 0 14 14" fill="none" xmlns="http://www.w3.org/2000/svg">
<path d="M6.99528 13.6667C6.08861 13.6667 5.22195 13.4933 4.39528 13.1467C3.60417 12.8089 2.89972 12.3311 2.28195 11.7133C1.66417 11.0955 1.18639 10.3911 0.848613 9.59999C0.501947 8.77332 0.328613 7.90666 0.328613 6.99999C0.328613 6.09332 0.501947 5.22666 0.848613 4.39999C1.18639 3.60888 1.66417 2.90443 2.28195 2.28666C2.89972 1.66888 3.60417 1.1911 4.39528 0.853323C5.22195 0.506657 6.08861 0.333323 6.99528 0.333323C7.90195 0.333323 8.76861 0.506657 9.59528 0.853323C10.3864 1.1911 11.0908 1.66888 11.7086 2.28666C12.3264 2.90443 12.8042 3.60888 13.1419 4.39999C13.4886 5.22666 13.6619 6.09332 13.6619 6.99999C13.6619 7.90666 13.4886 8.77332 13.1419 9.59999C12.8042 10.3911 12.3264 11.0955 11.7086 11.7133C11.0908 12.3311 10.3864 12.8089 9.59528 13.1467C8.76861 13.4933 7.90195 13.6667 6.99528 13.6667ZM6.99528 12.3333C7.96417 12.3333 8.86195 12.0889 9.68861 11.6C10.4886 11.1289 11.1242 10.4933 11.5953 9.69332C12.0842 8.86666 12.3286 7.96888 12.3286 6.99999C12.3286 6.0311 12.0842 5.13332 11.5953 4.30666C11.1242 3.50666 10.4886 2.8711 9.68861 2.39999C8.86195 1.9111 7.96417 1.66666 6.99528 1.66666C6.02639 1.66666 5.12861 1.9111 4.30195 2.39999C3.50195 2.8711 2.86639 3.50666 2.39528 4.30666C1.90639 5.13332 1.66195 6.0311 1.66195 6.99999C1.66195 7.96888 1.90639 8.86666 2.39528 9.69332C2.86639 10.4933 3.50195 11.1289 4.30195 11.6C5.12861 12.0889 6.02639 12.3333 6.99528 12.3333ZM7.66195 6.99999H10.3286V8.33332H6.32861V3.66666H7.66195V6.99999Z" fill="#9CA3AF"/>
</svg>
