<svg width="12" height="14" viewBox="0 0 12 14" fill="none" xmlns="http://www.w3.org/2000/svg">
<path d="M0.661667 14C0.661667 13.0311 0.906111 12.1333 1.395 11.3067C1.86611 10.5067 2.50167 9.87111 3.30167 9.4C4.12833 8.91111 5.02611 8.66667 5.995 8.66667C6.96389 8.66667 7.86167 8.91111 8.68833 9.4C9.48833 9.87111 10.1239 10.5067 10.595 11.3067C11.0839 12.1333 11.3283 13.0311 11.3283 14H9.995C9.995 13.28 9.81278 12.6089 9.44833 11.9867C9.09278 11.3822 8.61278 10.9022 8.00833 10.5467C7.38611 10.1822 6.715 10 5.995 10C5.275 10 4.60389 10.1822 3.98167 10.5467C3.37722 10.9022 2.89722 11.3822 2.54167 11.9867C2.17722 12.6089 1.995 13.28 1.995 14H0.661667ZM5.995 8C5.26611 8 4.595 7.81778 3.98167 7.45333C3.37722 7.09778 2.89722 6.61778 2.54167 6.01333C2.17722 5.4 1.995 4.72889 1.995 4C1.995 3.27111 2.17722 2.6 2.54167 1.98667C2.89722 1.38222 3.37722 0.902222 3.98167 0.546666C4.595 0.182221 5.26611 0 5.995 0C6.72389 0 7.395 0.182221 8.00833 0.546666C8.61278 0.902222 9.09278 1.38222 9.44833 1.98667C9.81278 2.6 9.995 3.27111 9.995 4C9.995 4.72889 9.81278 5.4 9.44833 6.01333C9.09278 6.61778 8.61278 7.09778 8.00833 7.45333C7.395 7.81778 6.72389 8 5.995 8ZM5.995 6.66667C6.475 6.66667 6.91945 6.54667 7.32833 6.30667C7.73722 6.06667 8.06167 5.74222 8.30167 5.33333C8.54167 4.92444 8.66167 4.48 8.66167 4C8.66167 3.52 8.54167 3.07555 8.30167 2.66667C8.06167 2.25778 7.73722 1.93333 7.32833 1.69333C6.91945 1.45333 6.475 1.33333 5.995 1.33333C5.515 1.33333 5.07056 1.45333 4.66167 1.69333C4.25278 1.93333 3.92833 2.25778 3.68833 2.66667C3.44833 3.07555 3.32833 3.52 3.32833 4C3.32833 4.48 3.44833 4.92444 3.68833 5.33333C3.92833 5.74222 4.25278 6.06667 4.66167 6.30667C5.07056 6.54667 5.515 6.66667 5.995 6.66667Z" fill="#2E5A2E"/>
</svg>
